<svg width="108" height="44" viewBox="0 0 108 44" fill="none" xmlns="http://www.w3.org/2000/svg">
<path d="M26.904 30.344C27.544 30.952 27.864 31.64 27.864 32.408C27.864 33.144 27.576 33.8 27 34.376C26.456 34.92 25.8 35.192 25.032 35.192C24.232 35.192 23.496 34.856 22.824 34.184L6.84 19.208V32.168C6.84 33.096 6.552 33.848 5.976 34.424C5.432 35 4.68 35.288 3.72 35.288C2.792 35.288 2.04 35 1.464 34.424C0.92 33.848 0.648 33.096 0.648 32.168V3.992C0.648 3.064 0.92 2.328 1.464 1.784C2.04 1.208 2.792 0.919998 3.72 0.919998C4.68 0.919998 5.432 1.208 5.976 1.784C6.552 2.328 6.84 3.064 6.84 3.992V16.328L22.296 1.832C22.872 1.256 23.528 0.967998 24.264 0.967998C25 0.967998 25.64 1.256 26.184 1.832C26.76 2.376 27.048 3.016 27.048 3.752C27.048 4.488 26.728 5.16 26.088 5.768L13.176 17.576L26.904 30.344ZM48.8668 11.048C49.7948 11.048 50.5308 11.304 51.0748 11.816C51.6188 12.328 51.8907 13.016 51.8907 13.88V32.504C51.8907 33.336 51.6028 34.008 51.0268 34.52C50.4828 35.032 49.7628 35.288 48.8668 35.288C48.0028 35.288 47.3148 35.048 46.8028 34.568C46.2908 34.088 46.0348 33.432 46.0348 32.6V31.4C45.2988 32.68 44.3068 33.672 43.0588 34.376C41.8108 35.048 40.4028 35.384 38.8348 35.384C33.0748 35.384 30.1948 32.152 30.1948 25.688V13.88C30.1948 13.016 30.4668 12.328 31.0108 11.816C31.5548 11.304 32.2748 11.048 33.1708 11.048C34.0988 11.048 34.8348 11.304 35.3788 11.816C35.9228 12.328 36.1948 13.016 36.1948 13.88V25.736C36.1948 27.4 36.5308 28.632 37.2028 29.432C37.8748 30.232 38.9308 30.632 40.3708 30.632C42.0348 30.632 43.3628 30.088 44.3548 29C45.3788 27.88 45.8908 26.408 45.8908 24.584V13.88C45.8908 13.016 46.1628 12.328 46.7068 11.816C47.2508 11.304 47.9708 11.048 48.8668 11.048ZM75.6636 11.048C76.5916 11.048 77.3276 11.304 77.8716 11.816C78.4156 12.328 78.6876 13.016 78.6876 13.88V32.504C78.6876 33.336 78.3996 34.008 77.8236 34.52C77.2796 35.032 76.5596 35.288 75.6636 35.288C74.7996 35.288 74.1116 35.048 73.5996 34.568C73.0876 34.088 72.8316 33.432 72.8316 32.6V31.4C72.0956 32.68 71.1036 33.672 69.8556 34.376C68.6076 35.048 67.1996 35.384 65.6316 35.384C59.8716 35.384 56.9916 32.152 56.9916 25.688V13.88C56.9916 13.016 57.2636 12.328 57.8076 11.816C58.3516 11.304 59.0716 11.048 59.9676 11.048C60.8956 11.048 61.6316 11.304 62.1756 11.816C62.7196 12.328 62.9916 13.016 62.9916 13.88V25.736C62.9916 27.4 63.3276 28.632 63.9996 29.432C64.6716 30.232 65.7276 30.632 67.1676 30.632C68.8316 30.632 70.1596 30.088 71.1516 29C72.1756 27.88 72.6876 26.408 72.6876 24.584V13.88C72.6876 13.016 72.9596 12.328 73.5036 11.816C74.0476 11.304 74.7676 11.048 75.6636 11.048ZM97.4205 10.952C99.4365 10.952 101.229 11.464 102.797 12.488C104.397 13.512 105.629 14.968 106.493 16.856C107.389 18.712 107.837 20.856 107.837 23.288C107.837 25.72 107.389 27.848 106.493 29.672C105.629 31.496 104.413 32.904 102.845 33.896C101.277 34.888 99.4685 35.384 97.4205 35.384C95.7565 35.384 94.2685 35.032 92.9565 34.328C91.6445 33.624 90.6365 32.648 89.9325 31.4V41.192C89.9325 42.024 89.6605 42.68 89.1165 43.16C88.5725 43.64 87.8525 43.88 86.9565 43.88C86.0605 43.88 85.3245 43.624 84.7485 43.112C84.2045 42.6 83.9325 41.928 83.9325 41.096V13.88C83.9325 13.016 84.1885 12.328 84.7005 11.816C85.2445 11.304 85.9645 11.048 86.8605 11.048C87.7565 11.048 88.4765 11.304 89.0205 11.816C89.5645 12.328 89.8365 13.016 89.8365 13.88V15.08C90.5405 13.768 91.5485 12.76 92.8605 12.056C94.2045 11.32 95.7245 10.952 97.4205 10.952ZM95.8365 30.728C97.7245 30.728 99.1965 30.088 100.253 28.808C101.309 27.496 101.837 25.656 101.837 23.288C101.837 20.856 101.309 18.968 100.253 17.624C99.1965 16.28 97.7245 15.608 95.8365 15.608C93.9165 15.608 92.4285 16.264 91.3725 17.576C90.3485 18.888 89.8365 20.76 89.8365 23.192C89.8365 25.592 90.3485 27.448 91.3725 28.76C92.4285 30.072 93.9165 30.728 95.8365 30.728Z" fill="#2D3436"/>
</svg>
