<svg id="Layer_1" height="512" viewBox="0 0 256 256" width="512" xmlns="http://www.w3.org/2000/svg"><g><path d="m145.555 216.871h-83.567c-9.104 0-16.484-7.38-16.484-16.484v-170.675c0-9.104 7.38-16.484 16.484-16.484h83.567c9.104 0 16.484 7.38 16.484 16.484v170.675c.001 9.104-7.38 16.484-16.484 16.484z" fill="#63bce7"/><g><path d="m60.171 200.387v-170.675c0-9.104 7.38-16.484 16.484-16.484h-14.667c-9.104 0-16.484 7.38-16.484 16.484v170.674c0 9.104 7.38 16.484 16.484 16.484h14.667c-9.104.001-16.484-7.379-16.484-16.483z" fill="#6377e7"/></g><path d="m45.504 200.391c0 9.102 7.378 16.48 16.48 16.48h83.576c9.102 0 16.48-7.378 16.48-16.48v-9.738h-116.536z" fill="#cecece"/><path d="m60.171 200.391v-9.738h-14.667v9.738c0 9.102 7.378 16.48 16.48 16.48h14.667c-9.102 0-16.48-7.379-16.48-16.48z" fill="#afafaf"/><path d="m162.04 29.708c0-9.102-7.378-16.48-16.48-16.48h-83.576c-9.102 0-16.48 7.378-16.48 16.48v9.738h116.536z" fill="#cecece"/><path d="m76.651 13.228h-14.667c-9.102 0-16.48 7.378-16.48 16.48v9.738h14.667v-9.738c0-9.102 7.378-16.48 16.48-16.48z" fill="#afafaf"/><g fill="#f8af23"><path d="m82.92 23.394h41.2v5.886h-41.2z"/><circle cx="103.948" cy="204.217" r="5.003"/><path d="m162.022 52.738v51.352l-10.108-11.858c-4.191-4.917-11.643-5.511-16.56-1.32-4.917 4.191-5.511 11.643-1.32 16.56l22.994 26.976s-6.863 28.962 11.227 45.51h51.142l-4.534-62.216c-.544-5.746-4.087-10.606-7.69-14.626z"/></g><g><path d="m214.863 117.742c-.544-5.746-4.087-10.606-7.69-14.626l-45.152-50.377v16.364l30.485 34.013c3.603 4.02 7.146 8.88 7.69 14.626l4.534 62.216h14.667z" fill="#f8d323"/></g><path d="m150.33 179.958h79.502v36.913h-79.502z" fill="#9e9e9e"/><g><path d="m215.165 179.958h14.667v36.913h-14.667z" fill="#cecece"/></g><path d="m150.33 216.871h79.502v14.928h-79.502z" fill="#cecece"/><g><path d="m215.165 216.871h14.667v14.928h-14.667z" fill="#e2e2e2"/></g><circle cx="169.171" cy="198.415" fill="#63bce7" r="6.763"/><path d="m93.948 62.5h-60c-5.523 0-10 4.477-10 10v42c0 5.523 4.477 10 10 10h49.304l12.522 10.286c3.263 2.68 8.174.359 8.174-3.864v-58.422c0-5.523-4.477-10-10-10z" fill="#f46275"/><g><path d="m38.615 114.5v-42c0-5.523 4.477-10 10-10h-14.667c-5.523 0-10 4.477-10 10v42c0 5.523 4.477 10 10 10h14.667c-5.523 0-10-4.477-10-10z" fill="#f43075"/></g><g fill="#3f3679"><path d="m27.323 241.272h-18.003c-.829 0-1.5.671-1.5 1.5s.671 1.5 1.5 1.5h18.003c.829 0 1.5-.671 1.5-1.5s-.671-1.5-1.5-1.5z"/><path d="m246.68 241.272h-18.003c-.828 0-1.5.671-1.5 1.5s.672 1.5 1.5 1.5h18.003c.828 0 1.5-.671 1.5-1.5s-.672-1.5-1.5-1.5z"/><path d="m218.479 241.272h-180.958c-.829 0-1.5.671-1.5 1.5s.671 1.5 1.5 1.5h180.959c.828 0 1.5-.671 1.5-1.5s-.672-1.5-1.501-1.5z"/><path d="m9.32 233.299h141.01 79.502 16.848c.828 0 1.5-.671 1.5-1.5s-.672-1.5-1.5-1.5h-15.348v-13.428-36.913c0-.829-.672-1.5-1.5-1.5h-9.04l-4.436-60.857c-.608-6.427-4.63-11.652-8.065-15.486l-44.751-49.93v-22.473c0-9.917-8.067-17.984-17.984-17.984h-83.572c-9.914 0-17.98 8.066-17.98 17.98v31.292h-10.056c-6.341 0-11.5 5.159-11.5 11.5v42c0 6.341 5.159 11.5 11.5 11.5h10.056v64.652 9.734.004c0 9.914 8.066 17.98 17.98 17.98h83.576c1.101 0 2.195-.106 3.271-.304v12.232h-139.511c-.829 0-1.5.671-1.5 1.5s.671 1.501 1.5 1.501zm219.012-17.928h-76.502v-33.913h16.425 51.143 8.935v33.913zm-63.65-36.913h-1.142v-1.357c.371.462.75.916 1.142 1.357zm41.375-74.341c3.129 3.491 6.787 8.211 7.311 13.734l4.417 60.607h-48.939c-16.685-15.814-10.423-43.386-10.356-43.665.109-.465-.009-.955-.318-1.318l-22.994-26.976c-1.768-2.073-2.62-4.723-2.402-7.46.218-2.738 1.479-5.218 3.553-6.985 4.3-3.665 10.781-3.149 14.446 1.151l10.107 11.858 19.193 22.517c.297.348.718.527 1.143.527.344 0 .689-.118.972-.358.631-.538.706-1.484.169-2.115l-18.816-22.074v-46.88zm-144.073-89.389h83.572c8.263 0 14.984 6.722 14.984 14.984v8.234h-113.536v-8.239c0-8.259 6.72-14.979 14.98-14.979zm-36.536 99.772v-42c0-4.687 3.813-8.5 8.5-8.5h60c4.687 0 8.5 3.813 8.5 8.5v58.422c0 1.388-.75 2.571-2.004 3.165-1.256.592-2.646.421-3.717-.46l-12.522-10.286c-.269-.22-.605-.341-.953-.341h-49.304c-4.687 0-8.5-3.813-8.5-8.5zm57.267 11.5 12.107 9.945c1.195.981 2.643 1.486 4.111 1.486.943 0 1.895-.208 2.792-.633 2.296-1.085 3.723-3.337 3.723-5.876v-58.422c0-6.341-5.159-11.5-11.5-11.5h-46.944v-20.054h113.536v11.671c-.003.041-.019.079-.019.121v47.28l-7.466-8.759c-4.738-5.558-13.114-6.227-18.675-1.488-2.684 2.287-4.316 5.494-4.598 9.03s.822 6.961 3.109 9.645l22.514 26.413c-.426 2.121-1.502 8.435-1.046 16.228.487 8.304 2.603 15.635 6.192 21.689-.003.04-.012.078-.012.118v5.565h-10.21c-.828 0-1.5.671-1.5 1.5v9.194h-101.825v-63.153zm-20.731 89.371c-8.26 0-14.98-6.72-14.98-14.98v-.004-8.234h101.826v22.853c-1.07.238-2.166.366-3.271.366h-83.575zm89.846 3h76.502v11.928h-76.502z"/><path d="m82.92 30.78h41.2c.829 0 1.5-.671 1.5-1.5v-5.886c0-.829-.671-1.5-1.5-1.5h-41.2c-.829 0-1.5.671-1.5 1.5v5.886c0 .828.671 1.5 1.5 1.5zm1.5-5.886h38.2v2.886h-38.2z"/><path d="m103.948 197.714c-3.586 0-6.503 2.917-6.503 6.503s2.917 6.503 6.503 6.503c3.585 0 6.502-2.917 6.502-6.503s-2.916-6.503-6.502-6.503zm0 10.006c-1.932 0-3.503-1.571-3.503-3.503s1.571-3.503 3.503-3.503c1.931 0 3.502 1.571 3.502 3.503s-1.571 3.503-3.502 3.503z"/><path d="m169.171 190.152c-4.556 0-8.263 3.707-8.263 8.263s3.707 8.263 8.263 8.263 8.263-3.707 8.263-8.263-3.707-8.263-8.263-8.263zm0 13.525c-2.902 0-5.263-2.361-5.263-5.263s2.36-5.263 5.263-5.263 5.263 2.361 5.263 5.263-2.361 5.263-5.263 5.263z"/><path d="m44.232 77.672c-.563-.233-1.207-.104-1.635.325l-5.181 5.181c-.586.586-.586 1.536 0 2.121.586.586 1.536.586 2.121 0l2.62-2.62v23.321c0 .829.671 1.5 1.5 1.5s1.5-.671 1.5-1.5v-26.942c.001-.607-.365-1.154-.925-1.386z"/><path d="m57.212 90.92h4.145c3.684 0 6.681-2.997 6.681-6.681s-2.997-6.681-6.681-6.681h-9.326c-.829 0-1.5.671-1.5 1.5s.671 1.5 1.5 1.5h9.326c2.03 0 3.681 1.651 3.681 3.681s-1.651 3.681-3.681 3.681h-4.145c-3.684 0-6.681 2.997-6.681 6.681v11.399c0 .829.671 1.5 1.5 1.5h14.507c.829 0 1.5-.671 1.5-1.5s-.671-1.5-1.5-1.5h-13.006v-9.898c0-2.03 1.651-3.682 3.68-3.682z"/><path d="m90.919 106c0-.829-.671-1.5-1.5-1.5h-13.007v-9.898c0-2.03 1.651-3.681 3.681-3.681h4.145c3.684 0 6.681-2.997 6.681-6.681s-2.997-6.681-6.681-6.681h-9.326c-.829 0-1.5.671-1.5 1.5s.671 1.5 1.5 1.5h9.326c2.03 0 3.681 1.651 3.681 3.681s-1.651 3.681-3.681 3.681h-4.145c-3.684 0-6.681 2.997-6.681 6.681v11.398c0 .829.671 1.5 1.5 1.5h14.507c.829 0 1.5-.671 1.5-1.5z"/></g></g></svg>