<svg width="512" height="512" viewBox="0 0 512 512" fill="none" xmlns="http://www.w3.org/2000/svg">
<path d="M480 464H256C251.757 464 247.687 462.314 244.686 459.314C241.686 456.313 240 452.243 240 448V416C240 411.757 241.686 407.687 244.686 404.686C247.687 401.686 251.757 400 256 400H296L326.4 363.512C329.403 359.908 333.162 357.009 337.411 355.02C341.659 353.031 346.293 352 350.984 352H441.016C445.707 352 450.341 353.031 454.589 355.02C458.838 357.009 462.597 359.908 465.6 363.512L492.296 395.552C494.69 398.427 496.001 402.051 496 405.792V448C496 452.243 494.314 456.313 491.314 459.314C488.313 462.314 484.243 464 480 464Z" fill="#B52F28"/>
<path d="M472 432V389.792C471.998 386.05 470.685 382.426 468.288 379.552L445.768 352.528C444.2 352.231 442.611 352.055 441.016 352H350.984C346.293 352 341.659 353.031 337.411 355.02C333.162 357.009 329.403 359.908 326.4 363.512L296 400H256C251.757 400 247.687 401.686 244.686 404.686C241.686 407.687 240 411.757 240 416V448H456C460.243 448 464.313 446.314 467.314 443.314C470.314 440.313 472 436.243 472 432V432Z" fill="#D23F34"/>
<path d="M384 352V384C384 388.243 382.314 392.313 379.314 395.314C376.313 398.314 372.243 400 368 400H296L326.4 363.512C329.403 359.908 333.162 357.009 337.411 355.02C341.659 353.031 346.293 352 350.984 352H384Z" fill="#C0DAFC"/>
<path d="M368 352H350.984C346.293 352 341.659 353.031 337.411 355.02C333.162 357.009 329.403 359.908 326.4 363.512L309.336 384H352C356.243 384 360.313 382.314 363.314 379.314C366.314 376.313 368 372.243 368 368V352Z" fill="#F7FAFD"/>
<path d="M240 448H32V416H240.016" fill="#4C6CB5"/>
<path d="M224 424V416H32V432H216C218.122 432 220.157 431.157 221.657 429.657C223.157 428.157 224 426.122 224 424Z" fill="#5576B7"/>
<path d="M240 416C240 411.757 241.686 407.687 244.686 404.686C247.687 401.686 251.757 400 256 400H296L326.4 363.512C329.403 359.908 333.162 357.009 337.411 355.02C341.659 353.031 346.293 352 350.984 352H368V166.544L216 56L64 166.544V416H240Z" fill="#E2E7F6"/>
<path d="M256 400V328C256 317.391 251.786 307.217 244.284 299.716C236.783 292.214 226.609 288 216 288C205.391 288 195.217 292.214 187.716 299.716C180.214 307.217 176 317.391 176 328V416H240C240 411.757 241.686 407.687 244.686 404.686C247.687 401.686 251.757 400 256 400V400Z" fill="#5E87CA"/>
<path d="M304 79.36V16H448L496 64V320H368V166.544L392 184L416 160L304 79.36Z" fill="#C8CDED"/>
<path d="M216 56L392 184L416 160L216 16L16 160L40 184L216 56Z" fill="#5E87CA"/>
<path d="M320 496C337.673 496 352 481.673 352 464C352 446.327 337.673 432 320 432C302.327 432 288 446.327 288 464C288 481.673 302.327 496 320 496Z" fill="#474747"/>
<path d="M432 496C449.673 496 464 481.673 464 464C464 446.327 449.673 432 432 432C414.327 432 400 446.327 400 464C400 481.673 414.327 496 432 496Z" fill="#474747"/>
<path d="M432 432C426.154 431.991 420.419 433.586 415.417 436.611C410.415 439.636 406.339 443.975 403.633 449.156C400.926 454.337 399.692 460.161 400.066 465.994C400.439 471.828 402.406 477.447 405.752 482.24C411.905 486.539 419.375 488.535 426.852 487.878C434.329 487.22 441.336 483.951 446.644 478.644C451.952 473.337 455.223 466.33 455.882 458.853C456.54 451.376 454.546 443.906 450.248 437.752C444.899 434.008 438.529 432 432 432V432Z" fill="#545454"/>
<path d="M320 432C314.155 431.991 308.419 433.586 303.417 436.611C298.416 439.636 294.34 443.975 291.633 449.156C288.926 454.337 287.692 460.161 288.066 465.994C288.44 471.828 290.406 477.447 293.752 482.24C299.905 486.539 307.375 488.535 314.852 487.878C322.329 487.22 329.336 483.951 334.645 478.644C339.953 473.337 343.223 466.33 343.882 458.853C344.541 451.376 342.546 443.906 338.248 437.752C332.9 434.008 326.529 432 320 432Z" fill="#545454"/>
<path d="M216 288C213.313 287.997 210.633 288.265 208 288.8V416H224V288.8C221.367 288.265 218.687 287.997 216 288V288Z" fill="#3B5892"/>
<path d="M216 256C255.765 256 288 223.765 288 184C288 144.235 255.765 112 216 112C176.235 112 144 144.235 144 184C144 223.765 176.235 256 216 256Z" fill="#F0AE42"/>
<path d="M272 176C272.008 164.194 269.109 152.568 263.561 142.147C258.012 131.726 249.984 122.832 240.184 116.248C223.677 110.409 205.607 110.786 189.358 117.308C173.108 123.83 159.792 136.049 151.901 151.68C144.011 167.31 142.086 185.281 146.488 202.228C150.889 219.175 161.316 233.937 175.816 243.752C186.675 247.661 198.317 248.897 209.755 247.354C221.193 245.812 232.092 241.536 241.527 234.89C250.963 228.243 258.659 219.421 263.963 209.17C269.268 198.919 272.024 187.542 272 176V176Z" fill="#F9D266"/>
<path d="M96 256H144V320H96V256Z" fill="#78A0D4"/>
<path d="M288 256H336V320H288V256Z" fill="#78A0D4"/>
<path d="M320 296V256H288V304H312C314.122 304 316.157 303.157 317.657 301.657C319.157 300.157 320 298.122 320 296Z" fill="#86B1E0"/>
<path d="M128 296V256H96V304H120C122.122 304 124.157 303.157 125.657 301.657C127.157 300.157 128 298.122 128 296Z" fill="#86B1E0"/>
<path d="M448 16V64H496" fill="#9DA1BF"/>
<path d="M328 40H424V56H328V40Z" fill="#9DA1BF"/>
<path d="M376 88H472V104H376V88Z" fill="#9DA1BF"/>
<path d="M408 120H472V136H408V120Z" fill="#9DA1BF"/>
<path d="M392 264H472V280H392V264Z" fill="#9DA1BF"/>
<path d="M392 232H472V248H392V232Z" fill="#9DA1BF"/>
<path d="M216 104C200.178 104 184.71 108.692 171.554 117.482C158.398 126.273 148.145 138.767 142.09 153.385C136.035 168.003 134.45 184.089 137.537 199.607C140.624 215.126 148.243 229.38 159.432 240.569C170.62 251.757 184.874 259.376 200.393 262.463C215.911 265.55 231.997 263.965 246.615 257.91C261.233 251.855 273.727 241.602 282.518 228.446C291.308 215.29 296 199.823 296 184C295.977 162.79 287.541 142.455 272.543 127.457C257.545 112.459 237.21 104.023 216 104ZM216 248C203.342 248 190.968 244.246 180.444 237.214C169.919 230.182 161.716 220.186 156.872 208.492C152.028 196.797 150.76 183.929 153.23 171.514C155.699 159.099 161.795 147.696 170.745 138.745C179.696 129.795 191.099 123.699 203.514 121.23C215.929 118.76 228.797 120.028 240.492 124.872C252.186 129.716 262.182 137.919 269.214 148.444C276.247 158.968 280 171.342 280 184C279.981 200.968 273.232 217.236 261.234 229.234C249.236 241.232 232.968 247.981 216 248V248Z" fill="black"/>
<path d="M144 248H96C93.8783 248 91.8434 248.843 90.3431 250.343C88.8429 251.843 88 253.878 88 256V320C88 322.122 88.8429 324.157 90.3431 325.657C91.8434 327.157 93.8783 328 96 328H144C146.122 328 148.157 327.157 149.657 325.657C151.157 324.157 152 322.122 152 320V256C152 253.878 151.157 251.843 149.657 250.343C148.157 248.843 146.122 248 144 248ZM136 312H104V264H136V312Z" fill="black"/>
<path d="M336 248H288C285.878 248 283.843 248.843 282.343 250.343C280.843 251.843 280 253.878 280 256V320C280 322.122 280.843 324.157 282.343 325.657C283.843 327.157 285.878 328 288 328H336C338.122 328 340.157 327.157 341.657 325.657C343.157 324.157 344 322.122 344 320V256C344 253.878 343.157 251.843 341.657 250.343C340.157 248.843 338.122 248 336 248ZM328 312H296V264H328V312Z" fill="black"/>
<path d="M496 328C498.122 328 500.156 327.157 501.657 325.657C503.157 324.157 504 322.122 504 320V64C503.999 61.8785 503.156 59.844 501.656 58.344L453.656 10.344C452.156 8.84362 450.121 8.00047 448 8.00002H304C301.878 8.00002 299.843 8.84287 298.343 10.3432C296.843 11.8435 296 13.8783 296 16V63.744L220.672 9.50402C219.311 8.52484 217.677 7.99805 216 7.99805C214.323 7.99805 212.689 8.52484 211.328 9.50402L11.3279 153.504C10.3865 154.181 9.60359 155.055 9.03342 156.065C8.46325 157.075 8.11946 158.197 8.02586 159.352C7.93226 160.508 8.09109 161.671 8.49135 162.759C8.89161 163.848 9.52373 164.836 10.3439 165.656L34.3439 189.656C35.6951 191.011 37.4875 191.837 39.3956 191.984C41.3037 192.131 43.2013 191.589 44.7439 190.456L55.9999 182.256V408H31.9999C29.8782 408 27.8433 408.843 26.3431 410.343C24.8428 411.843 23.9999 413.878 23.9999 416V448C23.9999 450.122 24.8428 452.157 26.3431 453.657C27.8433 455.157 29.8782 456 31.9999 456H233.472C235.121 460.663 238.17 464.703 242.202 467.567C246.235 470.431 251.054 471.98 256 472H280.8C282.636 481.042 287.542 489.172 294.686 495.011C301.83 500.85 310.773 504.04 320 504.04C329.227 504.04 338.17 500.85 345.314 495.011C352.458 489.172 357.364 481.042 359.2 472H392.8C394.636 481.042 399.542 489.172 406.686 495.011C413.83 500.85 422.773 504.04 432 504.04C441.227 504.04 450.17 500.85 457.314 495.011C464.458 489.172 469.364 481.042 471.2 472H480C486.365 472 492.47 469.471 496.97 464.971C501.471 460.47 504 454.365 504 448V405.792C503.984 400.175 502.003 394.741 498.4 390.432L471.744 358.4C467.994 353.888 463.295 350.259 457.983 347.77C452.67 345.281 446.875 343.994 441.008 344H376V328H496ZM456 35.312L476.688 56H456V35.312ZM312 24H440V64C440 66.1218 440.843 68.1566 442.343 69.6569C443.843 71.1572 445.878 72 448 72H488V312H376V182.256L387.296 190.472C388.839 191.605 390.736 192.147 392.644 192C394.552 191.853 396.345 191.027 397.696 189.672L421.696 165.672C422.516 164.852 423.148 163.864 423.548 162.775C423.949 161.687 424.108 160.524 424.014 159.368C423.92 158.213 423.577 157.091 423.006 156.081C422.436 155.071 421.653 154.197 420.712 153.52L312 75.264V24ZM40.7999 173.504L28.3119 161L216 25.856L403.688 161L391.2 173.504L220.704 49.528C219.337 48.5342 217.69 47.9989 216 47.9989C214.31 47.9989 212.663 48.5342 211.296 49.528L40.7999 173.504ZM39.9999 424H232V440H39.9999V424ZM248 393.472C244.654 394.667 241.615 396.59 239.103 399.103C236.59 401.615 234.667 404.654 233.472 408H224V297.136C230.849 298.904 236.919 302.892 241.262 308.477C245.604 314.061 247.973 320.926 248 328V393.472ZM208 408H184V328C184.026 320.926 186.396 314.061 190.738 308.477C195.081 302.892 201.151 298.904 208 297.136V408ZM320 488C315.253 488 310.613 486.592 306.666 483.955C302.719 481.318 299.643 477.57 297.827 473.184C296.01 468.799 295.535 463.973 296.461 459.318C297.387 454.662 299.673 450.386 303.029 447.029C306.386 443.673 310.662 441.387 315.318 440.461C319.973 439.535 324.799 440.01 329.184 441.827C333.57 443.643 337.318 446.72 339.955 450.666C342.592 454.613 344 459.253 344 464C344 470.365 341.471 476.47 336.97 480.971C332.47 485.471 326.365 488 320 488ZM432 488C427.253 488 422.613 486.592 418.666 483.955C414.719 481.318 411.643 477.57 409.827 473.184C408.01 468.799 407.535 463.973 408.461 459.318C409.387 454.662 411.673 450.386 415.029 447.029C418.386 443.673 422.662 441.387 427.318 440.461C431.973 439.535 436.799 440.01 441.184 441.827C445.57 443.643 449.318 446.72 451.955 450.666C454.592 454.613 456 459.253 456 464C456 470.365 453.471 476.47 448.97 480.971C444.47 485.471 438.365 488 432 488ZM459.448 368.64L486.144 400.64C487.342 402.077 487.999 403.889 488 405.76V448C488 450.122 487.157 452.157 485.657 453.657C484.156 455.157 482.122 456 480 456H471.2C469.364 446.958 464.458 438.828 457.314 432.989C450.17 427.15 441.227 423.96 432 423.96C422.773 423.96 413.83 427.15 406.686 432.989C399.542 438.828 394.636 446.958 392.8 456H359.2C357.364 446.958 352.458 438.828 345.314 432.989C338.17 427.15 329.227 423.96 320 423.96C310.773 423.96 301.83 427.15 294.686 432.989C287.542 438.828 282.636 446.958 280.8 456H256C253.878 456 251.843 455.157 250.343 453.657C248.843 452.157 248 450.122 248 448V416C248 413.878 248.843 411.843 250.343 410.343C251.843 408.843 253.878 408 256 408H368C374.365 408 380.47 405.471 384.97 400.971C389.471 396.47 392 390.365 392 384V360H441.008C444.528 359.996 448.005 360.768 451.193 362.261C454.38 363.755 457.199 365.933 459.448 368.64V368.64ZM313.08 392L332.552 368.64C334.797 365.938 337.609 363.763 340.789 362.27C343.969 360.777 347.439 360.002 350.952 360H376V384C376 386.122 375.157 388.157 373.657 389.657C372.156 391.157 370.122 392 368 392H313.08ZM350.992 344C345.126 343.993 339.331 345.28 334.02 347.769C328.708 350.258 324.012 353.888 320.264 358.4L292.264 392H264V328C264 315.27 258.943 303.061 249.941 294.059C240.939 285.057 228.73 280 216 280C203.27 280 191.061 285.057 182.059 294.059C173.057 303.061 168 315.27 168 328V408H71.9999V170.624L216 65.888L360 170.616V344H350.992Z" fill="black"/>
<path d="M328 40H424V56H328V40Z" fill="black"/>
<path d="M376 88H472V104H376V88Z" fill="black"/>
<path d="M408 120H472V136H408V120Z" fill="black"/>
<path d="M392 264H472V280H392V264Z" fill="black"/>
<path d="M392 232H472V248H392V232Z" fill="black"/>
</svg>
