<svg id="Layer_1" enable-background="new 0 0 512 512" height="512" viewBox="0 0 512 512" width="512" xmlns="http://www.w3.org/2000/svg"><g><path d="m296.093 512h-77.117c-4.321 0-7.872-3.412-8.057-7.73-1.001-23.316.422-44.24.422-44.24h92.385s1.431 20.926.424 44.242c-.186 4.317-3.737 7.728-8.057 7.728z" fill="#f79e60"/><path d="m296.093 512h-25.332c1.762-26.207 0-51.971 0-51.971h32.965s1.431 20.926.424 44.242c-.186 4.318-3.737 7.729-8.057 7.729z" fill="#d77d41"/><path d="m339.647 450.128c-.566 3.545-3.393 6.287-6.95 6.758-9.119 1.208-18.131 2.15-26.962 2.855-59.147 4.754-109.87-.678-126.617-2.85-3.549-.46-6.356-3.216-6.92-6.751-3.461-21.698-1.736-40.769-.261-50.779l136.415-.196 31.513-.051c1.484 9.939 3.272 29.14-.218 51.014z" fill="#0b687f"/><path d="m332.697 456.886c-9.119 1.208-18.131 2.15-26.962 2.855 3.255-24.434 3.194-46.736 2.617-60.576l31.513-.051c1.484 9.94 3.272 29.14-.218 51.015-.565 3.543-3.392 6.286-6.95 6.757z" fill="#124a6a"/><g><path d="m508.713 373.891c-.171 3.367-2.633 6.177-5.949 6.786-24.302 4.469-124.271 21.361-246.765 21.361-122.49 0-222.455-16.891-246.763-21.36-3.317-.61-5.779-3.423-5.95-6.791-.247-4.872-.478-9.732-.692-14.575-5.581-125.321-.617-240.692.693-267.255.166-3.373 2.625-6.181 5.947-6.792 17.862-3.285 76.603-13.285 155.11-18.353 12.351-38.802 48.686-66.912 91.593-66.912 42.897 0 79.232 28.1 91.594 66.902 58.978 3.801 106.81 10.393 134.552 14.833 9.223 1.474 16.226 2.712 20.683 3.531 3.322.611 5.778 3.422 5.945 6.795 1.362 27.595 6.664 150.99.002 281.83z" fill="#09eaa3"/><path d="m508.713 373.891c-.171 3.367-2.633 6.177-5.949 6.786-24.302 4.469-124.271 21.361-246.765 21.361-122.49 0-222.455-16.891-246.763-21.36-3.317-.61-5.779-3.423-5.95-6.791-.247-4.872-.478-9.732-.692-14.575 59.885 8.313 264.078 32.055 480.149 5.068 2.936-128.086.484-241.248-.659-282.645 9.223 1.474 16.226 2.712 20.683 3.531 3.322.611 5.778 3.422 5.945 6.795 1.361 27.595 6.663 150.99.001 281.83z" fill="#05c9a3"/><path d="m273.029 78.128 28.356 4.17c4.022.591 5.619 5.538 2.703 8.37l-20.559 19.965 4.795 28.251c.68 4.007-3.53 7.055-7.124 5.157l-25.346-13.38-25.395 13.291c-3.601 1.885-7.8-1.178-7.106-5.183l4.895-28.234-20.488-20.037c-2.906-2.842-1.291-7.783 2.733-8.36l28.371-4.07 12.731-25.676c1.805-3.641 7.002-3.632 8.795.016z" fill="#fff18d"/><g fill="#fff"><path d="m255.999 329.945c-8.535 0-15.454 6.916-15.454 15.447s6.919 15.447 15.454 15.447 15.454-6.916 15.454-15.447-6.919-15.447-15.454-15.447z"/><path d="m113.759 326.855c-8.535 0-15.454 6.916-15.454 15.447s6.919 15.447 15.454 15.447 15.454-6.916 15.454-15.447-6.919-15.447-15.454-15.447z"/><path d="m398.114 326.855c-8.535 0-15.454 6.916-15.454 15.447s6.919 15.447 15.454 15.447 15.454-6.916 15.454-15.447-6.919-15.447-15.454-15.447z"/><path d="m113.759 112.213c-8.535 0-15.454 6.916-15.454 15.447s6.919 15.447 15.454 15.447 15.454-6.916 15.454-15.447-6.919-15.447-15.454-15.447z"/><path d="m398.114 143.107c8.535 0 15.454-6.916 15.454-15.447s-6.919-15.447-15.454-15.447-15.454 6.916-15.454 15.447 6.919 15.447 15.454 15.447z"/></g></g><g fill="#fff"><path d="m85.789 180.258c-4.143 0-7.5 3.357-7.5 7.5v81.718h-21.126v-21.755c0-4.143-3.358-7.5-7.5-7.5-4.143 0-7.5 3.357-7.5 7.5v29.255c0 4.143 3.357 7.5 7.5 7.5h36.126c4.143 0 7.5-3.357 7.5-7.5v-89.218c0-4.143-3.357-7.5-7.5-7.5z"/><path d="m148.919 180.258h-33.126c-4.143 0-7.5 3.357-7.5 7.5v89.218c0 4.143 3.358 7.5 7.5 7.5 4.143 0 7.5-3.357 7.5-7.5v-22.571h18.125v22.571c0 4.143 3.357 7.5 7.5 7.5s7.5-3.357 7.5-7.5v-89.218c.001-4.143-3.357-7.5-7.499-7.5zm-7.501 59.147h-18.125v-44.147h18.125z"/><path d="m210.047 195.258c4.143 0 7.5-3.357 7.5-7.5s-3.358-7.5-7.5-7.5h-31.126c-4.143 0-7.5 3.357-7.5 7.5v89.218c0 4.143 3.357 7.5 7.5 7.5h31.126c4.143 0 7.5-3.357 7.5-7.5s-3.358-7.5-7.5-7.5h-23.626v-74.219h23.626z"/><path d="m399.19 180.258h-34.126c-4.143 0-7.5 3.357-7.5 7.5v89.218c0 4.143 3.357 7.5 7.5 7.5h34.126c4.143 0 7.5-3.357 7.5-7.5v-89.218c.001-4.143-3.357-7.5-7.5-7.5zm-7.5 89.218h-19.125v-74.219h19.125z"/><path d="m275.669 180.602c-3.955-1.237-8.162.958-9.403 4.91l-12.352 39.355h-7.995v-37.109c0-4.143-3.358-7.5-7.5-7.5-4.143 0-7.5 3.357-7.5 7.5v89.218c0 4.143 3.357 7.5 7.5 7.5s7.5-3.357 7.5-7.5v-37.109h7.995l12.352 39.355c1.006 3.204 3.964 5.256 7.154 5.256.744 0 1.501-.111 2.248-.346 3.952-1.241 6.151-5.45 4.91-9.402l-13.296-42.363 13.296-42.363c1.241-3.952-.957-8.161-4.909-9.402z"/><path d="m336.061 180.258h-34.126c-4.143 0-7.5 3.357-7.5 7.5v89.218c0 4.143 3.358 7.5 7.5 7.5 4.143 0 7.5-3.357 7.5-7.5v-22.571h26.626c4.143 0 7.5-3.357 7.5-7.5v-59.147c0-4.143-3.357-7.5-7.5-7.5zm-7.5 59.147h-19.125v-44.147h19.125z"/><path d="m462.197 180.258h-34.126c-4.143 0-7.5 3.357-7.5 7.5 0 4.142 3.357 7.5 7.5 7.5h9.563v81.719c0 4.143 3.357 7.5 7.5 7.5s7.5-3.357 7.5-7.5v-81.719h9.563c4.143 0 7.5-3.357 7.5-7.5s-3.358-7.5-7.5-7.5z"/></g><g fill="#fff"><path d="m173.407 122.361c0 4.142 3.359 7.5 7.504 7.5 4.144 0 7.503-3.358 7.503-7.5s-3.359-7.5-7.503-7.5c-4.145-.001-7.504 3.357-7.504 7.5z"/><path d="m338.437 122.361c0-4.142-3.359-7.5-7.503-7.5s-7.504 3.358-7.504 7.5 3.359 7.5 7.504 7.5c4.144 0 7.503-3.358 7.503-7.5z"/><path d="m173.407 344.739c0 4.142 3.359 7.5 7.504 7.5 4.144 0 7.503-3.358 7.503-7.5s-3.359-7.5-7.503-7.5c-4.145 0-7.504 3.358-7.504 7.5z"/><path d="m323.43 344.739c0 4.142 3.359 7.5 7.504 7.5 4.144 0 7.503-3.358 7.503-7.5s-3.359-7.5-7.503-7.5c-4.145 0-7.504 3.358-7.504 7.5z"/></g><g fill="#fff18d"><path d="m123.472 4.471c-1.676-3.789-6.107-5.504-9.892-3.829-3.789 1.675-5.503 6.103-3.829 9.892l14.501 32.817c1.239 2.803 3.985 4.471 6.864 4.471 1.013 0 2.042-.206 3.027-.642 3.789-1.675 5.503-6.103 3.829-9.892z"/><path d="m72.119 43.613-27.593-22.286c-3.224-2.602-7.945-2.099-10.548 1.122-2.603 3.222-2.1 7.944 1.122 10.548l27.592 22.286c1.388 1.12 3.054 1.665 4.708 1.665 2.188 0 4.358-.953 5.84-2.787 2.603-3.223 2.1-7.945-1.121-10.548z"/><path d="m398.419.642c-3.784-1.673-8.218.041-9.892 3.829l-14.501 32.817c-1.674 3.789.04 8.217 3.829 9.892.985.436 2.015.642 3.027.642 2.879 0 5.626-1.668 6.864-4.471l14.501-32.817c1.676-3.789-.038-8.217-3.828-9.892z"/><path d="m444.599 56.947c1.654 0 3.32-.545 4.708-1.665l27.593-22.286c3.222-2.604 3.725-7.325 1.122-10.548-2.603-3.222-7.324-3.724-10.548-1.122l-27.592 22.286c-3.222 2.604-3.725 7.325-1.122 10.548 1.482 1.834 3.651 2.787 5.839 2.787z"/><path d="m134.145 421.64c-3.785-1.672-8.218.041-9.892 3.829l-14.501 32.817c-1.674 3.789.04 8.217 3.829 9.892.985.436 2.015.642 3.027.642 2.879 0 5.626-1.668 6.865-4.471l14.501-32.817c1.673-3.789-.04-8.217-3.829-9.892z"/><path d="m62.693 413.538-27.593 22.286c-3.222 2.604-3.725 7.325-1.122 10.548 1.482 1.834 3.651 2.787 5.84 2.787 1.654 0 3.32-.545 4.708-1.665l27.592-22.286c3.222-2.604 3.725-7.325 1.122-10.548s-7.324-3.725-10.547-1.122z"/><path d="m387.747 425.469c-1.676-3.789-6.106-5.503-9.892-3.829-3.789 1.675-5.503 6.103-3.829 9.892l14.501 32.817c1.239 2.803 3.986 4.471 6.865 4.471 1.013 0 2.042-.206 3.027-.642 3.789-1.675 5.503-6.103 3.829-9.892z"/><path d="m476.9 435.824-27.592-22.286c-3.223-2.603-7.944-2.099-10.548 1.122-2.603 3.223-2.1 7.944 1.122 10.548l27.592 22.286c1.388 1.12 3.054 1.665 4.708 1.665 2.188 0 4.357-.953 5.84-2.787 2.603-3.223 2.1-7.945-1.122-10.548z"/></g></g></svg>