<svg width="46" height="20" viewBox="0 0 46 20" fill="none" xmlns="http://www.w3.org/2000/svg">
<path d="M0.264205 15V0.454545H3.33949V6.8679H3.53125L8.76562 0.454545H12.4517L7.05398 6.96733L12.5156 15H8.83665L4.85227 9.01989L3.33949 10.8665V15H0.264205ZM19.3086 10.3551V4.09091H22.3342V15H19.4293V13.0185H19.3157C19.0695 13.6577 18.6599 14.1714 18.087 14.5597C17.5188 14.9479 16.8252 15.142 16.006 15.142C15.2769 15.142 14.6353 14.9763 14.0813 14.6449C13.5273 14.3134 13.0941 13.8423 12.7816 13.2315C12.4738 12.6207 12.3176 11.8892 12.3129 11.0369V4.09091H15.3384V10.4972C15.3432 11.1411 15.516 11.6501 15.8569 12.0241C16.1978 12.3982 16.6547 12.5852 17.2276 12.5852C17.5922 12.5852 17.9331 12.5024 18.2504 12.3366C18.5676 12.1662 18.8233 11.9152 19.0174 11.5838C19.2163 11.2524 19.3133 10.8428 19.3086 10.3551ZM30.75 10.3551V4.09091H33.7756V15H30.8707V13.0185H30.7571C30.5109 13.6577 30.1013 14.1714 29.5284 14.5597C28.9602 14.9479 28.2666 15.142 27.4474 15.142C26.7183 15.142 26.0767 14.9763 25.5227 14.6449C24.9688 14.3134 24.5355 13.8423 24.223 13.2315C23.9152 12.6207 23.759 11.8892 23.7543 11.0369V4.09091H26.7798V10.4972C26.7846 11.1411 26.9574 11.6501 27.2983 12.0241C27.6392 12.3982 28.0961 12.5852 28.669 12.5852C29.0336 12.5852 29.3745 12.5024 29.6918 12.3366C30.009 12.1662 30.2647 11.9152 30.4588 11.5838C30.6577 11.2524 30.7547 10.8428 30.75 10.3551ZM35.1957 19.0909V4.09091H38.1786V5.9233H38.3136C38.4461 5.62973 38.6379 5.33144 38.8888 5.02841C39.1445 4.72064 39.476 4.46496 39.8832 4.26136C40.2951 4.05303 40.8065 3.94886 41.4173 3.94886C42.2127 3.94886 42.9466 4.1572 43.619 4.57386C44.2913 4.9858 44.8287 5.60843 45.2312 6.44176C45.6336 7.27036 45.8349 8.30966 45.8349 9.55966C45.8349 10.7765 45.6384 11.804 45.2454 12.642C44.8571 13.4754 44.3268 14.1075 43.6545 14.5384C42.9869 14.9645 42.2388 15.1776 41.4102 15.1776C40.823 15.1776 40.3235 15.0805 39.9116 14.8864C39.5044 14.6922 39.1706 14.4484 38.9102 14.1548C38.6497 13.8565 38.4509 13.5559 38.3136 13.2528H38.2212V19.0909H35.1957ZM38.1573 9.54545C38.1573 10.1941 38.2473 10.7599 38.4272 11.2429C38.6071 11.7259 38.8675 12.1023 39.2085 12.3722C39.5494 12.6373 39.9637 12.7699 40.4513 12.7699C40.9438 12.7699 41.3604 12.6349 41.7013 12.3651C42.0423 12.0904 42.3003 11.7116 42.4755 11.2287C42.6554 10.741 42.7454 10.1799 42.7454 9.54545C42.7454 8.91572 42.6578 8.36174 42.4826 7.88352C42.3074 7.4053 42.0494 7.03125 41.7085 6.76136C41.3675 6.49148 40.9485 6.35653 40.4513 6.35653C39.9589 6.35653 39.5423 6.48674 39.2013 6.74716C38.8652 7.00758 38.6071 7.37689 38.4272 7.85511C38.2473 8.33333 38.1573 8.89678 38.1573 9.54545Z" fill="#2D3436"/>
</svg>
