<svg width="22" height="22" viewBox="0 0 22 22" fill="none" xmlns="http://www.w3.org/2000/svg">
<path d="M15 7.51123C16.5913 7.51123 18.1174 8.14688 19.2426 9.27835C20.3679 10.4098 21 11.9444 21 13.5446V20.5835H17V13.5446C17 13.0112 16.7893 12.4996 16.4142 12.1225C16.0391 11.7453 15.5304 11.5335 15 11.5335C14.4696 11.5335 13.9609 11.7453 13.5858 12.1225C13.2107 12.4996 13 13.0112 13 13.5446V20.5835H9V13.5446C9 11.9444 9.63214 10.4098 10.7574 9.27835C11.8826 8.14688 13.4087 7.51123 15 7.51123V7.51123Z" stroke="#F2F2F2" stroke-width="2" stroke-linecap="round" stroke-linejoin="round"/>
<path d="M5 8.5166H1V20.5833H5V8.5166Z" stroke="#F2F2F2" stroke-width="2" stroke-linecap="round" stroke-linejoin="round"/>
<path d="M3 5.50001C4.10457 5.50001 5 4.5996 5 3.4889C5 2.37819 4.10457 1.47778 3 1.47778C1.89543 1.47778 1 2.37819 1 3.4889C1 4.5996 1.89543 5.50001 3 5.50001Z" stroke="#F2F2F2" stroke-width="2" stroke-linecap="round" stroke-linejoin="round"/>
</svg>
