<svg width="491" height="498" viewBox="0 0 491 498" fill="none" xmlns="http://www.w3.org/2000/svg">
<path d="M490.512 386.429V403.441C490.512 430.843 478.734 456.929 458.18 475.05L457.277 475.843C445.684 486.058 430.762 491.699 415.312 491.699H351.469C343.504 491.699 335.68 490.199 328.383 487.355C321.086 484.507 314.324 480.3 308.461 474.902C288.855 456.824 277.699 431.371 277.699 404.703V385.906C277.699 328.175 307.211 288.367 355.934 257.398L356.875 256.8V233.855L340.305 140.484C339.586 137.027 342.227 133.777 345.762 133.777H421.426C424.957 133.777 427.594 137.019 426.883 140.476L410.496 233.824V256.8L411.602 257.492C460.711 288.382 490.512 328.41 490.512 386.429V386.429Z" fill="#20B7A1"/>
<path d="M490.511 386.429V403.441C490.511 430.843 478.734 456.929 458.179 475.05L457.277 475.843C445.683 486.058 430.761 491.699 415.312 491.699H377.207C369.242 491.699 361.418 490.199 354.125 487.355C346.828 484.507 340.062 480.3 334.199 474.902C314.594 456.824 303.437 431.371 303.437 404.703V385.906C303.437 328.175 332.949 288.367 381.676 257.398L382.617 256.8V233.855L366.047 140.484C365.324 137.027 367.965 133.777 371.504 133.777H421.426C424.953 133.777 427.594 137.019 426.883 140.476L410.496 233.824V256.8L411.597 257.492C460.711 288.382 490.511 328.41 490.511 386.429Z" fill="#24D3B5"/>
<path d="M356.875 233.878H410.496V256.8H356.875V233.878Z" fill="#FFDE91"/>
<path d="M356.875 233.878H382.613V256.8H356.875V233.878Z" fill="#EDC472"/>
<path d="M312.672 462.874C295.363 481.722 272.84 492.909 249.34 496.249C218.879 500.585 186.785 491.73 162.36 469.3C119.071 429.57 116.196 362.265 155.934 318.988C180.586 292.128 215.856 280.831 249.41 285.613C269.938 288.538 289.824 297.472 306.246 312.562C349.535 352.292 352.41 419.593 312.672 462.874V462.874Z" fill="#FFDE91"/>
<path d="M312.672 462.874C295.364 481.722 272.84 492.909 249.34 496.249C228.817 493.323 208.926 484.386 192.504 469.3C149.215 429.57 146.34 362.265 186.082 318.988C203.387 300.136 225.911 288.948 249.411 285.613C269.938 288.538 289.825 297.472 306.246 312.562C349.536 352.292 352.411 419.593 312.672 462.874V462.874Z" fill="#FFE89C"/>
<path d="M309.243 405.152C305.692 423.952 295.27 440.612 279.93 452.073C270.59 459.042 260.164 463.538 249.442 465.687C221.442 471.304 191.375 460.917 173.2 436.562C160.461 419.484 155.43 397.691 159.391 376.749C162.942 357.941 173.364 341.277 188.703 329.831C205.032 317.644 225.125 312.554 245.286 315.476C246.625 315.667 247.969 315.902 249.289 316.163C267.797 319.855 284.078 330.101 295.434 345.343C308.172 362.405 313.203 384.214 309.243 405.152V405.152Z" fill="#DBAD5C"/>
<path d="M309.242 405.151C305.692 423.952 295.27 440.612 279.93 452.073C270.59 459.042 260.164 463.538 249.442 465.687C231.621 462.116 215.008 452.233 203.317 436.562C190.578 419.483 185.547 397.69 189.508 376.749C193.07 357.94 203.481 341.276 218.828 329.831C228.016 322.983 238.387 318.37 249.289 316.163C267.797 319.854 284.074 330.101 295.434 345.343C308.172 362.405 313.203 384.214 309.242 405.151V405.151Z" fill="#EDC472"/>
<path d="M185.321 462.874C168.012 481.722 145.493 492.909 121.989 496.249C91.532 500.585 59.4382 491.73 35.0085 469.3C-8.28054 429.57 -11.1555 362.265 28.5827 318.988C53.2351 292.128 88.5046 280.831 122.063 285.613C142.587 288.538 162.477 297.472 178.895 312.562C222.184 352.292 225.059 419.593 185.321 462.874Z" fill="#FFE89C"/>
<path d="M185.321 462.874C168.012 481.722 145.493 492.909 121.989 496.249C101.466 493.323 81.5749 484.386 65.157 469.3C21.8679 429.57 18.9929 362.265 58.7312 318.988C76.0398 300.136 98.5593 288.948 122.063 285.613C142.587 288.538 162.477 297.472 178.895 312.562C222.184 352.292 225.059 419.593 185.321 462.874Z" fill="#FCF2B6"/>
<path d="M181.891 405.152C178.34 423.952 167.922 440.612 152.583 452.073C143.243 459.042 132.813 463.538 122.094 465.687C94.0943 471.304 64.0279 460.917 45.8522 436.562C33.1139 419.484 28.0826 397.691 32.0436 376.749C35.5943 357.941 46.0123 341.277 61.3522 329.831C77.6842 317.644 97.774 312.554 117.938 315.476C119.278 315.667 120.622 315.902 121.942 316.163C140.45 319.855 156.727 330.101 168.087 345.343C180.825 362.405 185.856 384.214 181.891 405.152V405.152Z" fill="#DBAD5C"/>
<path d="M181.891 405.151C178.34 423.952 167.922 440.612 152.582 452.073C143.243 459.042 132.813 463.538 122.094 465.687C104.27 462.116 87.6567 452.233 75.9692 436.562C63.2309 419.483 58.1958 397.69 62.1606 376.749C65.7231 357.94 76.1294 341.276 91.4809 329.831C100.668 322.983 111.036 318.37 121.942 316.163C140.446 319.854 156.727 330.101 168.082 345.343C180.825 362.405 185.856 384.214 181.891 405.151V405.151Z" fill="#EDC472"/>
<path d="M316.54 91.3591V241.926C316.54 249.453 310.45 255.543 302.923 255.543H18.2C10.6843 255.543 4.58276 249.453 4.58276 241.926V91.3591C4.58276 83.8435 10.6843 77.7419 18.2 77.7419H302.923C310.45 77.7419 316.54 83.8435 316.54 91.3591V91.3591Z" fill="#C0694E"/>
<path d="M316.54 91.3591V219.402H45.7544C38.2427 219.402 32.1372 213.308 32.1372 205.785V77.7419H302.922C310.45 77.7419 316.54 83.8435 316.54 91.3591Z" fill="#C97E67"/>
<path d="M178.719 18.7227C178.719 28.75 170.59 36.8789 160.563 36.8789C150.535 36.8789 142.406 28.75 142.406 18.7227C142.406 8.69531 150.535 0.566406 160.563 0.566406C170.59 0.566406 178.719 8.69531 178.719 18.7227Z" fill="#EDC472"/>
<path d="M39.1646 204.984H77.8442C81.0161 204.984 82.6021 201.445 82.6021 198.027C82.6021 194.492 81.0161 191.074 77.8442 191.074H48.0708V120.676C48.0708 117.258 44.0474 115.793 40.1411 115.793C36.1177 115.793 32.2114 117.258 32.2114 120.676V199.98C32.2114 203.277 35.6294 204.984 39.1646 204.984Z" fill="black"/>
<path d="M117.375 205.715C133.477 205.715 146.047 198.152 146.047 177.777V143.738C146.047 123.359 133.477 115.797 117.375 115.797C101.266 115.797 88.8247 123.359 88.8247 143.738V177.777C88.8247 198.152 101.266 205.715 117.375 205.715ZM104.684 143.738C104.684 134.097 109.321 129.707 117.375 129.707C125.305 129.707 130.184 134.097 130.184 143.738V177.777C130.184 187.414 125.305 191.808 117.375 191.808C109.321 191.808 104.684 187.414 104.684 177.777V143.738Z" fill="black"/>
<path d="M168.739 201.812L173.375 185.586H201.313L205.95 201.812C206.559 204.129 208.633 204.984 211.317 204.984C215.489 204.984 222.317 202.117 221.078 197.176L197.532 120.433C196.434 116.773 191.918 115.066 187.282 115.066C182.77 115.066 178.254 116.773 177.157 120.433C152.731 200.039 153.364 197.73 153.364 198.398C153.364 204.328 167.125 207.941 168.739 201.812ZM187.282 135.683L197.899 173.14H176.668L187.282 135.683Z" fill="black"/>
<path d="M245.602 199.98V150.933L271.836 199.98C276.113 207.781 288.918 205.523 288.918 199.98V120.676C288.918 117.258 284.891 115.797 280.984 115.797C276.961 115.797 273.055 117.258 273.055 120.676V169.722L249.508 124.215C245.727 117.015 243.406 115.797 237.672 115.797C233.648 115.797 229.746 117.383 229.746 120.797V199.98C229.742 206.679 245.602 206.601 245.602 199.98V199.98Z" fill="black"/>
<path d="M53.9539 434.319C51.3093 431.085 46.5437 430.608 43.3093 433.253C40.075 435.897 39.5984 440.663 42.2429 443.897C58.2546 463.479 82.0945 474.679 107.387 474.679C176.384 474.679 215.649 395.483 174.555 340.413C158.794 319.288 133.587 306.675 107.134 306.675C51.0906 306.675 10.6453 360.757 26.7546 414.718C27.95 418.722 32.1609 420.999 36.1687 419.804C40.1726 418.608 42.45 414.394 41.2546 410.39C28.1843 366.62 60.7078 321.804 107.134 321.804C129.161 321.804 149.317 331.886 162.43 349.46C198.563 397.882 158.653 467.741 97.321 458.819C80.2429 456.335 64.8445 447.636 53.9539 434.319Z" fill="black"/>
</svg>
