<svg width="105" height="33" viewBox="0 0 105 33" fill="none" xmlns="http://www.w3.org/2000/svg">
<path d="M34.7699 27V6.63636H39.0753V15.6151H39.3438L46.6719 6.63636H51.8324L44.2756 15.7543L51.9219 27H46.7713L41.1932 18.6278L39.0753 21.2131V27H34.7699ZM61.832 20.4972V11.7273H66.0678V27H62.0011V24.2259H61.842C61.4973 25.1207 60.9239 25.84 60.1218 26.3835C59.3263 26.9271 58.3552 27.1989 57.2085 27.1989C56.1876 27.1989 55.2894 26.9669 54.5138 26.5028C53.7383 26.0388 53.1317 25.3793 52.6942 24.5241C52.2634 23.669 52.0446 22.6449 52.038 21.4517V11.7273H56.2738V20.696C56.2804 21.5975 56.5224 22.3101 56.9996 22.8338C57.4769 23.3575 58.1166 23.6193 58.9187 23.6193C59.4291 23.6193 59.9064 23.5033 60.3505 23.2713C60.7946 23.0327 61.1526 22.6813 61.4244 22.2173C61.7028 21.7533 61.8387 21.1799 61.832 20.4972ZM78.25 20.4972V11.7273H82.4858V27H78.419V24.2259H78.2599C77.9152 25.1207 77.3419 25.84 76.5398 26.3835C75.7443 26.9271 74.7732 27.1989 73.6264 27.1989C72.6056 27.1989 71.7074 26.9669 70.9318 26.5028C70.1563 26.0388 69.5497 25.3793 69.1122 24.5241C68.6813 23.669 68.4626 22.6449 68.456 21.4517V11.7273H72.6918V20.696C72.6984 21.5975 72.9403 22.3101 73.4176 22.8338C73.8949 23.3575 74.5346 23.6193 75.3366 23.6193C75.8471 23.6193 76.3243 23.5033 76.7685 23.2713C77.2126 23.0327 77.5705 22.6813 77.8423 22.2173C78.1207 21.7533 78.2566 21.1799 78.25 20.4972ZM84.8739 32.7273V11.7273H89.0501V14.2926H89.239C89.4246 13.8816 89.6931 13.464 90.0444 13.0398C90.4023 12.6089 90.8664 12.2509 91.4364 11.9659C92.0131 11.6742 92.729 11.5284 93.5842 11.5284C94.6978 11.5284 95.7253 11.8201 96.6665 12.4034C97.6078 12.9801 98.3602 13.8518 98.9237 15.0185C99.4871 16.1785 99.7688 17.6335 99.7688 19.3835C99.7688 21.0871 99.4937 22.5256 98.9435 23.6989C98.4 24.8655 97.6576 25.7505 96.7163 26.3537C95.7816 26.9503 94.7343 27.2486 93.5742 27.2486C92.7522 27.2486 92.0529 27.1127 91.4762 26.8409C90.9061 26.5691 90.4388 26.2277 90.0742 25.8168C89.7096 25.3991 89.4312 24.9782 89.239 24.554H89.1097V32.7273H84.8739ZM89.0202 19.3636C89.0202 20.2718 89.1462 21.0639 89.3981 21.7401C89.65 22.4162 90.0146 22.9432 90.4918 23.321C90.9691 23.6922 91.5491 23.8778 92.2319 23.8778C92.9213 23.8778 93.5046 23.6889 93.9819 23.3111C94.4592 22.9266 94.8204 22.3963 95.0657 21.7202C95.3176 21.0374 95.4435 20.2519 95.4435 19.3636C95.4435 18.482 95.3209 17.7064 95.0756 17.0369C94.8304 16.3674 94.4691 15.8437 93.9918 15.4659C93.5146 15.0881 92.9279 14.8991 92.2319 14.8991C91.5425 14.8991 90.9592 15.0814 90.4819 15.446C90.0112 15.8106 89.65 16.3277 89.3981 16.9972C89.1462 17.6667 89.0202 18.4555 89.0202 19.3636Z" fill="#2D3436"/>
<path d="M23.6111 5.5H3.82639C2.26542 5.5 1 6.65695 1 8.08413V26.173C1 27.6002 2.26542 28.7571 3.82639 28.7571H23.6111C25.1721 28.7571 26.4375 27.6002 26.4375 26.173V8.08413C26.4375 6.65695 25.1721 5.5 23.6111 5.5Z" stroke="#6C5CE7" stroke-width="2" stroke-linecap="round" stroke-linejoin="round"/>
<path d="M1 13.2524H26.4375" stroke="#6C5CE7" stroke-width="2" stroke-linecap="round" stroke-linejoin="round"/>
<path d="M9.47917 28.7571V13.2524" stroke="#6C5CE7" stroke-width="2" stroke-linecap="round" stroke-linejoin="round"/>
</svg>
