<svg height="512" viewBox="0 0 512 512" width="512" xmlns="http://www.w3.org/2000/svg"><g id="filled_outline" data-name="filled outline"><rect fill="#e2e2e2" height="464" rx="32" width="256" x="64" y="24"/><path d="m64 72h256v368h-256z" fill="#a6deff"/><path d="m304 72h16v368h-16z" fill="#92d1f7"/><circle cx="200" cy="464" fill="#cbcbcb" r="24"/><path d="m208 56h-32a8 8 0 0 1 0-16h32a8 8 0 0 1 0 16z" fill="#cbcbcb"/><rect fill="#79a73a" height="176" rx="10" width="304" x="144" y="160"/><path d="m392 304h-192a24 24 0 0 0 -24-24v-64a24 24 0 0 0 24-24h192a24 24 0 0 0 24 24v64a24 24 0 0 0 -24 24z" fill="#89b140"/><g fill="#fbb540"><circle cx="296" cy="248" r="56"/><path d="m168 376h-48a8 8 0 0 1 0-16h48a8 8 0 0 1 0 16z"/><path d="m168 344h-56a8 8 0 0 1 0-16h56a8 8 0 0 1 0 16z"/><path d="m168 312h-64a8 8 0 0 1 0-16h64a8 8 0 0 1 0 16z"/></g><circle cx="208" cy="248" fill="#79a73a" r="8"/><circle cx="384" cy="246.028" fill="#79a73a" r="8"/><path d="m440 136h-32a8 8 0 0 1 0-16h32a8 8 0 0 1 0 16z" fill="#a6deff"/><path d="m376 136h-8a8 8 0 0 1 0-16h8a8 8 0 0 1 0 16z" fill="#a6deff"/><path d="m328 56a40.045 40.045 0 0 0 -40-40h-192a40.045 40.045 0 0 0 -40 40v400a40.045 40.045 0 0 0 40 40h192a40.045 40.045 0 0 0 40-40v-112h110a18.021 18.021 0 0 0 18-18v-156a18.021 18.021 0 0 0 -18-18h-110zm-232-24h192a24.028 24.028 0 0 1 24 24v8h-240v-8a24.028 24.028 0 0 1 24-24zm-24 424v-8h100.305a31.885 31.885 0 0 0 0 32h-76.305a24.028 24.028 0 0 1 -24-24zm144 8a16 16 0 1 1 -16-16 16.019 16.019 0 0 1 16 16zm72 16h-60.3a31.885 31.885 0 0 0 0-32h84.3v8a24.028 24.028 0 0 1 -24 24zm152-310v156a2 2 0 0 1 -2 2h-284a2 2 0 0 1 -2-2v-14h16a8 8 0 0 0 0-16h-16v-126a2 2 0 0 1 2-2h284a2 2 0 0 1 2 2zm-286-18a18.021 18.021 0 0 0 -18 18v126h-32a8 8 0 0 0 0 16h32v14a18.081 18.081 0 0 0 .118 2h-24.118a8 8 0 0 0 0 16h200v88h-240v-352h240v72z"/><path d="m176 56h32a8 8 0 0 0 0-16h-32a8 8 0 0 0 0 16z"/><path d="m200 184a8 8 0 0 0 -8 8 16.019 16.019 0 0 1 -16 16 8 8 0 0 0 -8 8v64a8 8 0 0 0 8 8 16.019 16.019 0 0 1 16 16 8 8 0 0 0 8 8h192a8 8 0 0 0 8-8 16.019 16.019 0 0 1 16-16 8 8 0 0 0 8-8v-64a8 8 0 0 0 -8-8 16.018 16.018 0 0 1 -16-16 8 8 0 0 0 -8-8zm144 64a48 48 0 1 1 -48-48 48.055 48.055 0 0 1 48 48zm-137.012 48a32.121 32.121 0 0 0 -22.988-22.988v-50.024a32.121 32.121 0 0 0 22.988-22.988h46.748a63.868 63.868 0 0 0 0 96zm178.024-96a32.12 32.12 0 0 0 22.988 22.987v50.025a32.121 32.121 0 0 0 -22.988 22.988h-46.748a63.868 63.868 0 0 0 0-96z"/><path d="m120 376h48a8 8 0 0 0 0-16h-48a8 8 0 0 0 0 16z"/><circle cx="208" cy="248" r="8"/><circle cx="384" cy="246.028" r="8"/><path d="m440 136a8 8 0 0 0 0-16h-32a8 8 0 0 0 0 16z"/><path d="m376 136a8 8 0 0 0 0-16h-8a8 8 0 0 0 0 16z"/></g></svg>