<svg height="512" viewBox="0 0 60 60" width="512" xmlns="http://www.w3.org/2000/svg"><g id="Page-1" fill="none" fill-rule="evenodd"><g id="014---Savings"><path id="Path" d="m37 18v34c0 1.8565154-.7374979 3.6369928-2.0502525 4.9497475-1.3127547 1.3127546-3.0932321 2.0502525-4.9497475 2.0502525h-22c-1.85651543 0-3.63699282-.7374979-4.94974747-2.0502525-1.31275465-1.3127547-2.05025253-3.0932321-2.05025253-4.9497475v-34c0-3.8659932 3.13400675-7 7-7 1.65685425 0 3-1.34314575 3-3v-3h16v3c0 1.65685425 1.3431458 3 3 3 3.8659932 0 7 3.1340068 7 7z" fill="#00bcd4"/><path id="Path" d="m30 11c-1.6568542 0-3-1.34314575-3-3v-3h-3v3c0 1.65685425 1.3431458 3 3 3 3.8659932 0 7 3.1340068 7 7v34c0 1.8565154-.7374979 3.6369928-2.0502525 4.9497475-1.3127547 1.3127546-3.0932321 2.0502525-4.9497475 2.0502525h3c1.8565154 0 3.6369928-.7374979 4.9497475-2.0502525 1.3127546-1.3127547 2.0502525-3.0932321 2.0502525-4.9497475v-34c0-3.8659932-3.1340068-7-7-7z" fill="#00838f"/><rect id="Rectangle" fill="#00838f" height="4" rx="2" width="24" x="7" y="1"/><circle id="Oval" cx="51" cy="21" fill="#ffdc00" r="6"/><path id="Path" d="m51 15c-.5064496.0029108-1.0104803.0701149-1.5.2 2.6479943.6813094 4.498931 3.0687622 4.498931 5.803s-1.8509367 5.1216906-4.498931 5.803c2.2531797.5872914 4.6426897-.1820582 6.1299399-1.9736543 1.4872502-1.7915962 1.8036517-4.2818866.8116819-6.3884777s-3.1131667-3.4490442-5.4416218-3.443868z" fill="#fec108"/><circle id="Oval" cx="19" cy="15" fill="#ffdc00" r="6"/><path id="Path" d="m19 9c-.5064496.00291083-1.0104803.07011491-1.5.2 2.6479943.68130935 4.498931 3.0687622 4.498931 5.803s-1.8509367 5.1216906-4.498931 5.803c2.2531797.5872914 4.6426897-.1820582 6.1299399-1.9736543 1.4872502-1.7915962 1.8036517-4.2818866.8116819-6.3884777s-3.1131667-3.44904416-5.4416218-3.443868z" fill="#fec108"/><circle id="Oval" cx="27" cy="29" fill="#ffdc00" r="6"/><path id="Path" d="m27 23c-.5064496.0029108-1.0104803.0701149-1.5.2 2.6479943.6813094 4.498931 3.0687622 4.498931 5.803s-1.8509367 5.1216906-4.498931 5.803c2.2531797.5872914 4.6426897-.1820582 6.1299399-1.9736543 1.4872502-1.7915962 1.8036517-4.2818866.8116819-6.3884777s-3.1131667-3.4490442-5.4416218-3.443868z" fill="#fec108"/><path id="Path" d="m28 39h-12c-1.1045695 0-2 .8954305-2 2s.8954305 2 2 2h-6c-1.1045695 0-2 .8954305-2 2s.8954305 2 2 2h4c-1.1045695 0-2 .8954305-2 2s.8954305 2 2 2h-4c-1.1045695 0-2 .8954305-2 2s.8954305 2 2 2h4c-1.1045695 0-2 .8954305-2 2s.8954305 2 2 2h12c1.1045695 0 2-.8954305 2-2s-.8954305-2-2-2h-4c1.1045695 0 2-.8954305 2-2s-.8954305-2-2-2h4c1.1045695 0 2-.8954305 2-2s-.8954305-2-2-2h-4c1.1045695 0 2-.8954305 2-2s-.8954305-2-2-2h6c1.1045695 0 2-.8954305 2-2s-.8954305-2-2-2z" fill="#ffdc00"/><g fill="#fec108"><path id="Path" d="m24 53c0-1.1045695-.8954305-2-2-2h-3c1.1045695 0 2 .8954305 2 2s-.8954305 2-2 2h3c1.1045695 0 2-.8954305 2-2z"/><path id="Path" d="m21 45c0 1.1045695-.8954305 2-2 2h3c1.1045695 0 2-.8954305 2-2s-.8954305-2-2-2h-3c1.1045695 0 2 .8954305 2 2z"/><path id="Path" d="m26 55h-3c1.1045695 0 2 .8954305 2 2s-.8954305 2-2 2h3c1.1045695 0 2-.8954305 2-2s-.8954305-2-2-2z"/><path id="Path" d="m26 47h-3c1.1045695 0 2 .8954305 2 2s-.8954305 2-2 2h3c1.1045695 0 2-.8954305 2-2s-.8954305-2-2-2z"/><path id="Path" d="m28 39h-3c1.1045695 0 2 .8954305 2 2s-.8954305 2-2 2h3c1.1045695 0 2-.8954305 2-2s-.8954305-2-2-2z"/></g><path id="Path" d="m59 37c0-1.1045695-.8954305-2-2-2h-2c1.1045695 0 2-.8954305 2-2s-.8954305-2-2-2h2c1.1045695 0 2-.8954305 2-2s-.8954305-2-2-2h-12c-1.1045695 0-2 .8954305-2 2s.8954305 2 2 2h-2c-1.1045695 0-2 .8954305-2 2s.8954305 2 2 2h2c-1.1045695 0-2 .8954305-2 2s.8954305 2 2 2h-2c-1.1045695 0-2 .8954305-2 2s.8954305 2 2 2h2c-1.1045695 0-2 .8954305-2 2s.8954305 2 2 2h-2c-1.1045695 0-2 .8954305-2 2s.8954305 2 2 2h2c-1.1045695 0-2 .8954305-2 2s.8954305 2 2 2h-2c-1.1045695 0-2 .8954305-2 2s.8954305 2 2 2h12c1.1045695 0 2-.8954305 2-2s-.8954305-2-2-2h2c1.1045695 0 2-.8954305 2-2s-.8954305-2-2-2h-2c1.1045695 0 2-.8954305 2-2s-.8954305-2-2-2h2c1.1045695 0 2-.8954305 2-2s-.8954305-2-2-2h-2c1.1045695 0 2-.8954305 2-2s-.8954305-2-2-2h2c1.1045695 0 2-.8954305 2-2z" fill="#ffdc00"/><path id="Path" d="m59 37c0-1.1045695-.8954305-2-2-2h-2c1.1045695 0 2-.8954305 2-2s-.8954305-2-2-2h2c1.1045695 0 2-.8954305 2-2s-.8954305-2-2-2h-3c1.1045695 0 2 .8954305 2 2s-.8954305 2-2 2h-2c1.1045695 0 2 .8954305 2 2s-.8954305 2-2 2h2c1.1045695 0 2 .8954305 2 2s-.8954305 2-2 2h-2c1.1045695 0 2 .8954305 2 2s-.8954305 2-2 2h2c1.1045695 0 2 .8954305 2 2s-.8954305 2-2 2h-2c1.1045695 0 2 .8954305 2 2s-.8954305 2-2 2h2c1.1045695 0 2 .8954305 2 2s-.8954305 2-2 2h-2c1.1045695 0 2 .8954305 2 2s-.8954305 2-2 2h3c1.1045695 0 2-.8954305 2-2s-.8954305-2-2-2h2c1.1045695 0 2-.8954305 2-2s-.8954305-2-2-2h-2c1.1045695 0 2-.8954305 2-2s-.8954305-2-2-2h2c1.1045695 0 2-.8954305 2-2s-.8954305-2-2-2h-2c1.1045695 0 2-.8954305 2-2s-.8954305-2-2-2h2c1.1045695 0 2-.8954305 2-2z" fill="#fec108"/><path id="Shape" d="m8 60h22c4.4162219-.0049599 7.9950401-3.5837781 8-8v-34c-.0049599-4.4162219-3.5837781-7.9950401-8-8-1.1045695 0-2-.8954305-2-2v-2h1c1.6568542 0 3-1.34314575 3-3s-1.3431458-3-3-3h-20c-1.65685425 0-3 1.34314575-3 3s1.34314575 3 3 3h1v2c0 1.1045695-.8954305 2-2 2-4.41622192.0049599-7.99504012 3.5837781-8 8v34c.00495988 4.4162219 3.58377808 7.9950401 8 8zm6-2c-.5522847 0-1-.4477153-1-1s.4477153-1 1-1h12c.5522847 0 1 .4477153 1 1s-.4477153 1-1 1zm-1-9c0-.5522847.4477153-1 1-1h12c.5522847 0 1 .4477153 1 1s-.4477153 1-1 1h-12c-.5522847 0-1-.4477153-1-1zm2-8c0-.5522847.4477153-1 1-1h12c.5522847 0 1 .4477153 1 1s-.4477153 1-1 1h-12c-.5522847 0-1-.4477153-1-1zm1 3h6c.5522847 0 1 .4477153 1 1s-.4477153 1-1 1h-12c-.55228475 0-1-.4477153-1-1s.44771525-1 1-1zm-2 8h8c.5522847 0 1 .4477153 1 1s-.4477153 1-1 1h-12c-.55228475 0-1-.4477153-1-1s.44771525-1 1-1zm-6-49c0-.55228475.44771525-1 1-1h20c.5522847 0 1 .44771525 1 1s-.4477153 1-1 1h-20c-.55228475 0-1-.44771525-1-1zm-6 15c.00330738-3.3123376 2.68766243-5.9966926 6-6 2.209139 0 4-1.790861 4-4v-2h14v2c0 2.209139 1.790861 4 4 4 3.3123376.0033074 5.9966926 2.6876624 6 6v34c-.0033074 3.3123376-2.6876624 5.9966926-6 6h-1.184c.1184378-.320257.1806856-.6585603.184-1 0-1.6568542-1.3431458-3-3-3h-1.184c.2453699-.6440893.2453699-1.3559107 0-2h1.184c1.6568542-.0000001 2.9999999-1.3431458 2.9999999-3s-1.3431457-2.9999999-2.9999999-3h-1.184c.2453699-.6440893.2453699-1.3559107 0-2h3.184c1.6568542 0 3-1.3431458 3-3s-1.3431458-3-3-3h-12c-1.6568542 0-3 1.3431458-3 3 .0033144.3414397.0655622.679743.184 1h-3.184c-1.65685425 0-3 1.3431458-3 3s1.34314575 3 3 3h1.184c-.2453699.6440893-.2453699 1.3559107 0 2h-1.184c-1.65685425 0-3 1.3431458-3 3s1.34314575 3 3 3h1.184c-.2453699.6440893-.2453699 1.3559107 0 2h-3.184c-3.31233757-.0033074-5.99669262-2.6876624-6-6z" fill="#000" fill-rule="nonzero"/><path id="Shape" d="m19 22c3.8659932 0 7-3.1340068 7-7s-3.1340068-7-7-7-7 3.1340068-7 7c.0044086 3.8641657 3.1358343 6.9955914 7 7zm0-12c2.7614237 0 5 2.2385763 5 5s-2.2385763 5-5 5-5-2.2385763-5-5c.0033061-2.7600532 2.2399468-4.9966939 5-5z" fill="#000" fill-rule="nonzero"/><path id="Shape" d="m20 29c0 3.8659932 3.1340068 7 7 7s7-3.1340068 7-7-3.1340068-7-7-7c-3.8641657.0044086-6.9955914 3.1358343-7 7zm7-5c2.7614237 0 5 2.2385763 5 5s-2.2385763 5-5 5-5-2.2385763-5-5c.0033061-2.7600532 2.2399468-4.9966939 5-5z" fill="#000" fill-rule="nonzero"/><path id="Shape" d="m60 29c0-1.6568542-1.3431458-3-3-3h-1.11c2.0368069-1.9885044 2.6666341-5.0123796 1.5931118-7.6487183-1.0735224-2.6363387-3.636582-4.360064-6.4831118-4.360064s-5.4095894 1.7237253-6.4831118 4.360064c-1.0735223 2.6363387-.4436951 5.6602139 1.5931118 7.6487183h-1.11c-.9969108-.0033772-1.9299297.4903213-2.4879119 1.316456-.5579821.8261347-.6675213 1.8760222-.2920881 2.799544-1.3090101.3459182-2.220876 1.530055-2.220876 2.884s.9118659 2.5380818 2.220876 2.884c-.2932883.7150961-.2932883 1.5169039 0 2.232-1.3090101.3459182-2.220876 1.530055-2.220876 2.884s.9118659 2.5380818 2.220876 2.884c-.2932883.7150961-.2932883 1.5169039 0 2.232-1.3090101.3459182-2.220876 1.530055-2.220876 2.884s.9118659 2.5380818 2.220876 2.884c-.2932883.7150961-.2932883 1.5169039 0 2.232-1.4517646.3890218-2.3898681 1.7943757-2.1923562 3.2843246.1975119 1.4899488 1.4693754 2.6023432 2.9723562 2.5996754h12c.9969108.0033772 1.9299297-.4903213 2.4879119-1.316456.5579821-.8261347.6675213-1.8760222.2920881-2.799544 1.3090101-.3459182 2.220876-1.530055 2.220876-2.884s-.9118659-2.5380818-2.220876-2.884c.2932883-.7150961.2932883-1.5169039 0-2.232 1.3090101-.3459182 2.220876-1.530055 2.220876-2.884s-.9118659-2.5380818-2.220876-2.884c.2932883-.7150961.2932883-1.5169039 0-2.232 1.3090101-.3459182 2.220876-1.530055 2.220876-2.884s-.9118659-2.5380818-2.220876-2.884c.2932883-.7150961.2932883-1.5169039 0-2.232 1.3052127-.3514286 2.2142178-1.5323163 2.22-2.884zm-14-8c0-2.7614237 2.2385763-5 5-5s5 2.2385763 5 5-2.2385763 5-5 5c-2.7600532-.0033061-4.9966939-2.2399468-5-5zm-3 11h12c.5522847 0 1 .4477153 1 1s-.4477153 1-1 1h-12c-.5522847 0-1-.4477153-1-1s.4477153-1 1-1zm0 8h12c.5522847 0 1 .4477153 1 1s-.4477153 1-1 1h-12c-.5522847 0-1-.4477153-1-1s.4477153-1 1-1zm0 8h12c.5522847 0 1 .4477153 1 1s-.4477153 1-1 1h-12c-.5522847 0-1-.4477153-1-1s.4477153-1 1-1zm12 10h-12c-.5522847 0-1-.4477153-1-1s.4477153-1 1-1h12c.5522847 0 1 .4477153 1 1s-.4477153 1-1 1zm2-4h-12c-.5522847 0-1-.4477153-1-1s.4477153-1 1-1h12c.5522847 0 1 .4477153 1 1s-.4477153 1-1 1zm0-8h-12c-.5522847 0-1-.4477153-1-1s.4477153-1 1-1h12c.5522847 0 1 .4477153 1 1s-.4477153 1-1 1zm0-8h-12c-.5522847 0-1-.4477153-1-1s.4477153-1 1-1h12c.5522847 0 1 .4477153 1 1s-.4477153 1-1 1zm0-8h-12c-.5522847 0-1-.4477153-1-1s.4477153-1 1-1h12c.5522847 0 1 .4477153 1 1s-.4477153 1-1 1z" fill="#000" fill-rule="nonzero"/></g></g></svg>