<svg width="24" height="21" viewBox="0 0 24 21" fill="none" xmlns="http://www.w3.org/2000/svg">
<path d="M23 1.49351C22.0424 2.17274 20.9821 2.69224 19.86 3.03201C19.2577 2.33567 18.4573 1.84213 17.567 1.61812C16.6767 1.39412 15.7395 1.45047 14.8821 1.77954C14.0247 2.10862 13.2884 2.69455 12.773 3.45808C12.2575 4.22161 11.9877 5.12592 12 6.04868V7.05423C10.2426 7.10005 8.50127 6.70813 6.93101 5.91338C5.36074 5.11862 4.01032 3.94569 3 2.49907C3 2.49907 -1 11.5491 8 15.5713C5.94053 16.977 3.48716 17.6819 1 17.5824C10 22.6102 21 17.5824 21 6.01851C20.9991 5.73842 20.9723 5.45901 20.92 5.1839C21.9406 4.1718 22.6608 2.89396 23 1.49351V1.49351Z" stroke="#F2F2F2" stroke-width="2" stroke-linecap="round" stroke-linejoin="round"/>
</svg>
